# xmcd CD database file
#
# Track frame offsets:
#	150
#	15027
#	29013
#	46455
#	56985
#	71430
#	83904
#	96837
#	110985
#	128400
#	141036
#	159153
#	183534
#	196575
#	211344
#	225249
#	241233
#	256299
#	273714
#	286701
#
# Disc length: 4044 seconds
#
# Revision: 1
# Processed by: cddbd v1.5.1PL2 Copyright (c) Steve Scherf et al.
# Submitted via: CDex 1.51
#
DISCID=0f0fca14
DTITLE=Various Artist - Les géants du jazz
DYEAR=1900
DGENRE=Jazz
TTITLE0=Nuages/Django Reinhardt
TTITLE1=Makin'whoopee/Ella Fitsgerald
TTITLE2=April in Paris/ Count Basie
TTITLE3=My funny Valentine/Chet Baker
TTITLE4=When the saints go marchin in/Louis Amstrong
TTITLE5=Caravan/Nat King Cole
TTITLE6=Hox deep is the ocean/Stan Getz
TTITLE7=Black coffee/Peggy Lee
TTITLE8=Satin doll/Duke Ellington
TTITLE9=Misty/Erroll Grner
TTITLE10=Lullaby of Birdland/Sarah Vaughan
TTITLE11=Round midnight/Miles Davis
TTITLE12=I got a woman/Ray Charles
TTITLE13=Willow weep for me/Nina Simone
TTITLE14=C'est si bon/Louis Amstrong
TTITLE15=Blue moon/Billie Holiday
TTITLE16=Petite fleur/Sidney Bechet
TTITLE17=A fine romance/Ella Fitzgerald
TTITLE18=Night and day/Django Reinhardt
TTITLE19=In the mood/Glenn Miller
EXTD=
EXTT0=
EXTT1=
EXTT2=
EXTT3=
EXTT4=
EXTT5=
EXTT6=
EXTT7=
EXTT8=
EXTT9=
EXTT10=
EXTT11=
EXTT12=
EXTT13=
EXTT14=
EXTT15=
EXTT16=
EXTT17=
EXTT18=
EXTT19=
PLAYORDER=
